<svg width="1544" height="1105" viewBox="0 0 1544 1105" fill="none" xmlns="http://www.w3.org/2000/svg">
<path d="M204.082 605.76C191.962 595.346 180.162 587.666 175.975 575.986C167.362 551.96 166.882 483.56 166.882 483.56H91.6552C91.6552 483.56 91.1753 551.96 82.5619 575.986C78.3619 587.666 66.5618 595.346 54.4552 605.76C27.3085 624.746 -5.75818 653.506 0.855156 708.026C7.46849 762.533 33.7619 862.84 27.2286 900.32C22.1086 929.666 6.90854 997.493 6.90854 997.493V1061.15C6.90854 1061.15 6.90849 1105.15 40.9885 1103.96C70.9085 1102.91 64.8285 1071.25 80.7752 1072.08C96.7352 1072.91 91.6152 1084.87 102.055 1095.23C114.268 1107.36 145.095 1107.36 157.309 1095.23C167.749 1084.87 162.629 1072.91 178.575 1072.08C194.535 1071.25 188.455 1102.91 218.375 1103.96C252.442 1105.15 252.442 1061.15 252.442 1061.15L251.335 997.493C246.988 977.92 236.429 929.666 231.309 900.32C224.775 862.84 251.069 762.533 257.682 708.026C264.295 653.506 231.229 624.746 204.082 605.76" fill="#9DE7B7"/>
<path d="M204.082 605.919C191.962 595.519 180.162 587.839 175.975 576.159C167.362 552.119 166.882 483.733 166.882 483.733H141.535C141.535 483.733 142.002 552.119 150.629 576.159C154.815 587.839 166.615 595.519 178.735 605.919C205.882 624.919 238.948 653.679 232.335 708.186C225.722 762.706 199.429 863.013 205.962 900.493C211.069 929.826 221.642 978.093 225.989 997.666L227.095 1061.32C227.095 1061.32 227.095 1092.48 206.775 1101.64C209.909 1103.05 213.709 1103.96 218.375 1104.13C252.455 1105.32 252.455 1061.32 252.455 1061.32L251.349 997.666C246.989 978.093 236.429 929.826 231.309 900.493C224.775 863.013 251.069 762.706 257.682 708.186C264.295 653.679 231.229 624.919 204.082 605.919Z" fill="#86C49C"/>
<path d="M218.375 1083.52C188.455 1082.48 194.535 1050.81 178.575 1051.64C162.628 1052.47 167.748 1064.43 157.308 1074.79C145.095 1086.92 114.268 1086.92 102.055 1074.79C91.6148 1064.43 96.7349 1052.47 80.7749 1051.64C64.8282 1050.81 70.9081 1082.48 40.9881 1083.52C6.90815 1084.71 6.9082 1040.71 6.9082 1040.71V1061.15C6.9082 1061.15 6.90815 1105.15 40.9881 1103.96C70.9081 1102.91 64.8282 1071.25 80.7749 1072.08C96.7349 1072.91 91.6148 1084.87 102.055 1095.23C114.268 1107.36 145.095 1107.36 157.308 1095.23C167.748 1084.87 162.628 1072.91 178.575 1072.08C194.535 1071.25 188.455 1102.91 218.375 1103.96C252.442 1105.15 252.442 1061.15 252.442 1061.15V1040.71C252.442 1040.71 252.442 1084.71 218.375 1083.52Z" fill="#86C49C"/>
<path d="M168.495 536.28H90.0418C83.8551 536.28 78.8418 531.267 78.8418 525.067V485.213C78.8418 479.013 83.8551 474 90.0418 474H168.495C174.682 474 179.695 479.013 179.695 485.213V525.067C179.695 531.267 174.682 536.28 168.495 536.28Z" fill="#304298"/>
<path d="M173.108 550.573H86.3348C84.1615 550.573 82.3882 548.813 82.3882 546.626V545.293C82.3882 543.119 84.1615 541.346 86.3348 541.346H173.108C175.282 541.346 177.055 543.119 177.055 545.293V546.626C177.055 548.813 175.282 550.573 173.108 550.573Z" fill="#304298"/>
<path d="M94.5483 536.28H87.6548V482.986H94.5483V536.28Z" fill="#223466"/>
<path d="M109.429 536.28H102.535V482.986H109.429V536.28Z" fill="#223466"/>
<path d="M126.508 536.28H119.615V482.986H126.508V536.28Z" fill="#223466"/>
<path d="M143.042 536.28H136.162V482.986H143.042V536.28Z" fill="#223466"/>
<path d="M158.202 536.28H151.309V482.986H158.202V536.28Z" fill="#223466"/>
<path d="M170.321 536.28H163.441V482.986H170.321V536.28Z" fill="#223466"/>
<path d="M170.375 479.919H87.5748C86.4681 479.919 85.5615 479.013 85.5615 477.906C85.5615 476.799 86.4681 475.906 87.5748 475.906H170.375C171.481 475.906 172.388 476.799 172.388 477.906C172.388 479.013 171.481 479.919 170.375 479.919Z" fill="#405CC6"/>
<path d="M45.535 678.319C40.9883 678.319 36.3085 677.706 33.2951 674.479C28.6285 669.493 30.6418 661.439 33.5618 655.279C39.9085 641.933 49.3352 631.066 59.9485 620.959C64.9218 616.239 72.1883 614.693 79.735 614.693C87.2283 614.693 95.0017 616.213 101.108 617.653C103.668 618.253 106.295 619.026 108.308 620.706C111.628 623.506 112.588 628.186 113.028 632.506C114.148 643.466 113.295 654.626 110.522 665.293C109.828 667.973 108.948 670.733 107.028 672.733C103.882 675.999 98.855 676.373 94.3217 676.546C78.9884 677.106 63.655 677.679 48.335 678.253C47.415 678.293 46.4816 678.319 45.535 678.319" fill="#DBF0FD"/>
<path d="M100.828 598.506C97.6415 598.506 94.4148 596.706 93.1214 593.786C91.6414 590.466 92.7349 586.64 93.6816 583.12C94.4682 580.226 95.1347 577.28 95.4014 574.28C95.908 568.333 94.8015 555.56 103.695 555.16C103.828 555.16 103.962 555.16 104.095 555.16C112.562 555.16 113.801 567.36 113.455 573.386C113.201 577.76 112.655 582.12 111.828 586.413C111.428 588.493 110.948 590.586 109.988 592.466C108.375 595.6 105.295 598.04 101.801 598.453C101.481 598.493 101.162 598.506 100.828 598.506" fill="#DBF0FD"/>
<path d="M32.895 1066.36C32.135 1066.36 31.3883 1066.27 30.6416 1066.07C27.4416 1065.17 25.0284 1062.4 23.7484 1059.33C22.4684 1056.27 22.1616 1052.91 21.9083 1049.59C20.8283 1035.48 20.4817 1021.31 20.8817 1007.16C21.055 1001.27 24.8016 989.439 31.295 989.439C32.9883 989.439 34.8683 990.253 36.9083 992.173C43.7616 998.586 44.8282 1016.13 46.2015 1024.88C47.7482 1034.65 48.4815 1044.84 45.5215 1054.28C44.4682 1057.63 42.8949 1060.91 40.3215 1063.28C38.3082 1065.15 35.6016 1066.36 32.895 1066.36" fill="#DBF0FD"/>
<path d="M141.535 897.013H214.695V874.959L141.535 897.013Z" fill="#86C49C"/>
<path d="M1536.18 348.466C1532.64 318.306 1286.44 169.239 1286.44 169.239H1285.45V61.4395H1115.74V169.239L905.411 348.239C905.411 348.239 859.024 474.173 857.704 485.453C854.158 515.613 851.798 1001.48 865.998 1026.32C880.198 1051.17 963.598 1104.4 963.598 1104.4H1175.96H1226.22H1438.58C1438.58 1104.4 1521.98 1051.17 1536.18 1026.32C1550.38 1001.48 1539.73 378.639 1536.18 348.466" fill="#9DE7B7"/>
<path d="M1536.18 348.466C1532.64 318.306 1299.32 168.746 1299.32 168.746V63.5996L1239.3 61.4395V169.239H1240.3C1240.3 169.239 1486.49 318.306 1490.05 348.466C1493.6 378.639 1504.24 1001.48 1490.05 1026.32C1475.85 1051.17 1392.45 1104.4 1392.45 1104.4H1438.58C1438.58 1104.4 1521.98 1051.17 1536.18 1026.32C1550.38 1001.48 1539.73 378.639 1536.18 348.466Z" fill="#86C49C"/>
<path d="M1307.73 82.2666H1109.54C1104.32 82.2666 1100.09 78.0265 1100.09 72.8132V9.45306C1100.09 4.2264 1104.32 -6.02007e-05 1109.54 -6.02007e-05H1307.73C1312.94 -6.02007e-05 1317.18 4.2264 1317.18 9.45306V72.8132C1317.18 78.0265 1312.94 82.2666 1307.73 82.2666Z" fill="#304298"/>
<path d="M1302.5 117.906H1113.74C1110.46 117.906 1107.81 115.253 1107.81 111.973C1107.81 108.68 1110.46 106.026 1113.74 106.026H1302.5C1305.78 106.026 1308.44 108.68 1308.44 111.973C1308.44 115.253 1305.78 117.906 1302.5 117.906Z" fill="#304298"/>
<path d="M1115.49 80.1865H1109.64V17.36H1115.49V80.1865Z" fill="#223466"/>
<path d="M1128.53 80.1865H1122.68V17.36H1128.53V80.1865Z" fill="#223466"/>
<path d="M1141.58 80.1865H1135.73V17.36H1141.58V80.1865Z" fill="#223466"/>
<path d="M1154.62 80.1865H1148.77V17.36H1154.62V80.1865Z" fill="#223466"/>
<path d="M1167.66 80.1865H1161.82V17.36H1167.66V80.1865Z" fill="#223466"/>
<path d="M1180.72 80.1865H1174.86V17.36H1180.72V80.1865Z" fill="#223466"/>
<path d="M1193.76 80.1865H1187.92V17.36H1193.76V80.1865Z" fill="#223466"/>
<path d="M1206.81 80.1865H1200.96V17.36H1206.81V80.1865Z" fill="#223466"/>
<path d="M1219.85 80.1865H1214V17.36H1219.85V80.1865Z" fill="#223466"/>
<path d="M1232.9 80.1865H1227.05V17.36H1232.9V80.1865Z" fill="#223466"/>
<path d="M1245.94 80.1865H1240.09V17.36H1245.94V80.1865Z" fill="#223466"/>
<path d="M1259 80.1865H1253.14V17.36H1259V80.1865Z" fill="#223466"/>
<path d="M1272.04 80.1865H1266.18V17.36H1272.04V80.1865Z" fill="#223466"/>
<path d="M1285.09 80.1865H1279.24V17.36H1285.09V80.1865Z" fill="#223466"/>
<path d="M1298.13 80.1865H1292.28V17.36H1298.13V80.1865Z" fill="#223466"/>
<path d="M1311.18 80.1865H1305.33V17.36H1311.18V80.1865Z" fill="#223466"/>
<path d="M1305.7 10.2803H1110.36C1108.96 10.2803 1107.81 9.13366 1107.81 7.73366C1107.81 6.33366 1108.96 5.18678 1110.36 5.18678H1305.7C1307.1 5.18678 1308.25 6.33366 1308.25 7.73366C1308.25 9.13366 1307.1 10.2803 1305.7 10.2803Z" fill="#405CC6"/>
<path d="M1392.45 1104.4H963.598L1201.09 1045.84L1405.05 1096.13C1397.38 1101.25 1392.45 1104.4 1392.45 1104.4Z" fill="#9DD2FA"/>
<path d="M1438.58 1104.4H1392.45C1392.45 1104.4 1397.38 1101.25 1405.05 1096.13L1438.58 1104.4Z" fill="#86C49C"/>
<path d="M1438.58 1104.4H963.598L954.251 1098.31L1449.62 1097.17L1438.58 1104.4Z" fill="#86C49C"/>
<path d="M1087.16 348.24H986.531C973.598 348.24 968.024 331.854 978.278 323.974L1132.29 205.547C1134.65 203.72 1137.56 202.734 1140.54 202.734H1142.78C1152.7 202.734 1159.26 213.054 1155.04 222.04L1099.41 340.467C1097.18 345.214 1092.41 348.24 1087.16 348.24" fill="#DBF0FD"/>
<path d="M1022.12 1022.33H939.811C932.518 1022.33 926.611 1016.43 926.611 1009.13V404.693C926.611 397.413 932.518 391.506 939.811 391.506H1022.12C1029.4 391.506 1035.32 397.413 1035.32 404.693V1009.13C1035.32 1016.43 1029.4 1022.33 1022.12 1022.33Z" fill="#DBF0FD"/>
<path d="M1495.77 348.24L1261.54 354.24L1504.42 378.187L1495.77 348.24Z" fill="#86C49C"/>
<path d="M1517.73 1022.33C1515.73 1023.67 1336.73 1026.32 1336.73 1026.32L1499.76 1041.63L1517.73 1022.33" fill="#86C49C"/>
<path d="M1129.88 194.013C1129.88 194.013 958.637 178.933 935.571 230.387C916.584 272.76 926.251 491.08 926.251 491.08L857.704 485.453C857.704 485.453 847.851 245.36 886.771 183.36C922.704 126.133 1137.28 135.92 1137.28 135.92L1129.88 194.013Z" fill="#9DE7B7"/>
<path d="M912.451 201.586C907.624 201.586 902.745 199.413 901.011 195.027C898.531 188.747 903.691 181.907 909.571 178.6C909.571 178.6 942.891 158.747 980.958 153.413C1012.72 148.973 1042.64 149.906 1074.62 147.453C1075.94 147.346 1077.29 147.253 1078.62 147.253C1081.2 147.253 1083.73 147.587 1085.98 148.76C1089.41 150.533 1091.74 155.013 1089.89 158.4C1088.21 161.44 1084.22 162.187 1080.76 162.533C1055.2 165.133 1029.4 164.947 1003.88 168.027C978.371 171.107 952.651 177.707 931.571 192.413C926.691 195.813 921.918 199.72 916.145 201.147C914.958 201.44 913.704 201.586 912.451 201.586" fill="#DBF0FD"/>
<path d="M886.504 345.76C885.771 345.76 885.024 345.653 884.291 345.413C877.744 343.306 877.424 334.306 878.237 327.48C881.411 300.666 882.211 273.56 880.624 246.6C880.344 241.867 880.011 236.986 881.584 232.506C883.477 227.08 887.131 224.346 890.424 224.346C894.038 224.346 897.224 227.613 897.251 234.213C897.397 264.786 897.557 295.373 897.704 325.946C897.731 330.573 897.704 335.413 895.624 339.546C893.878 343 890.237 345.76 886.504 345.76" fill="#DBF0FD"/>
<path d="M666.748 596.84C682.414 590.493 719.161 573.626 720.254 494.266C721.348 414.933 684.401 391.813 631.375 357.48H631.788C619.668 347.08 607.881 339.4 603.681 327.72C595.068 303.68 594.588 235.28 594.588 235.28H519.361C519.361 235.28 518.881 303.68 510.268 327.72C506.081 339.4 494.281 347.08 482.161 357.48H482.814C429.788 391.893 392.841 415.04 394.028 494.4C395.228 573.76 431.988 590.586 447.668 596.92C471.855 606.68 465.655 615.653 466.268 631.08C466.895 646.52 405.948 661.946 402.375 702.733C399.028 740.866 399.855 968.186 399.975 997.613H399.894V1061.27C399.894 1061.27 399.894 1105.27 443.614 1104.08C482.001 1103.04 474.201 1071.37 494.668 1072.2C515.148 1073.03 508.575 1084.99 521.975 1095.35C537.641 1107.48 577.201 1107.48 592.868 1095.35C606.268 1084.99 599.694 1073.03 620.161 1072.2C640.641 1071.37 632.828 1103.04 671.228 1104.08C714.948 1105.27 714.948 1061.27 714.948 1061.27V997.613H714.935C715.015 968.72 715.561 740.786 712.174 702.613C708.548 661.826 650.721 646.466 651.335 631.04C651.935 615.6 642.574 606.626 666.748 596.84" fill="#9DE7B7"/>
<path d="M666.748 596.84C682.414 590.493 719.161 573.627 720.254 494.267C721.348 414.933 684.401 391.813 631.374 357.48H631.788C619.681 347.08 607.881 339.4 603.681 327.72C595.068 303.68 594.588 235.28 594.588 235.28H552.708C552.708 235.28 553.174 303.68 561.801 327.72C565.988 339.4 577.788 347.08 589.908 357.48H589.481C642.508 391.813 679.468 414.933 678.374 494.267C677.281 573.627 640.521 590.493 624.854 596.84C600.681 606.627 610.041 615.6 609.441 631.04C608.841 646.467 666.654 661.827 670.281 702.6C673.681 740.787 673.121 968.72 673.041 997.613H673.068V1061.27C673.068 1061.27 673.054 1088.55 651.708 1099.56C656.494 1102.12 662.721 1103.85 671.228 1104.08C714.948 1105.27 714.948 1061.27 714.948 1061.27V997.613H714.934C715.014 968.72 715.561 740.787 712.174 702.6C708.548 661.827 650.721 646.467 651.321 631.04C651.934 615.6 642.574 606.627 666.748 596.84" fill="#86C49C"/>
<path d="M671.228 1081.93C632.828 1080.89 640.641 1049.56 620.161 1050.39C599.694 1051.2 606.268 1063.03 592.868 1073.29C577.201 1085.29 537.641 1085.29 521.974 1073.29C508.574 1063.03 515.148 1051.2 494.668 1050.39C474.201 1049.56 482.001 1080.89 443.614 1081.93C399.881 1083.11 399.881 1039.56 399.881 1039.56V1061.39C399.881 1061.39 399.881 1104.92 443.614 1103.75C482.001 1102.71 474.201 1071.39 494.668 1072.2C515.148 1073.01 508.574 1084.84 521.974 1095.11C537.641 1107.11 577.201 1107.11 592.868 1095.11C606.268 1084.84 599.694 1073.01 620.161 1072.2C640.641 1071.39 632.828 1102.71 671.228 1103.75C714.948 1104.92 714.948 1061.39 714.948 1061.39V1039.56C714.948 1039.56 714.948 1083.11 671.228 1081.93" fill="#86C49C"/>
<path d="M595.068 286.28H516.628C510.441 286.28 505.428 281.266 505.428 275.08V235.213C505.428 229.026 510.441 224 516.628 224H595.068C601.268 224 606.281 229.026 606.281 235.213V275.08C606.281 281.266 601.268 286.28 595.068 286.28Z" fill="#304298"/>
<path d="M599.694 300.586H512.921C510.748 300.586 508.974 298.813 508.974 296.64V295.293C508.974 293.12 510.748 291.346 512.921 291.346H599.694C601.868 291.346 603.641 293.12 603.641 295.293V296.64C603.641 298.813 601.868 300.586 599.694 300.586Z" fill="#304298"/>
<path d="M521.135 286.28H514.241V232.986H521.135V286.28Z" fill="#223466"/>
<path d="M536.014 286.28H529.121V232.986H536.014V286.28Z" fill="#223466"/>
<path d="M553.094 286.28H546.201V232.986H553.094V286.28Z" fill="#223466"/>
<path d="M569.628 286.28H562.734V232.986H569.628V286.28Z" fill="#223466"/>
<path d="M584.788 286.28H577.894V232.986H584.788V286.28Z" fill="#223466"/>
<path d="M596.908 286.28H590.028V232.986H596.908V286.28Z" fill="#223466"/>
<path d="M596.961 229.92H514.161C513.054 229.92 512.148 229.013 512.148 227.92C512.148 226.813 513.054 225.907 514.161 225.907H596.961C598.068 225.907 598.974 226.813 598.974 227.92C598.974 229.013 598.068 229.92 596.961 229.92Z" fill="#405CC6"/>
<path d="M506.388 455.827C501.414 455.813 496.094 455.667 490.414 455.36C477.801 454.667 465.174 454.24 452.548 453.667C445.788 453.373 437.561 451.827 435.054 443.787C434.014 440.467 434.281 436.733 434.788 433.213C440.934 390.52 471.601 378.4 501.454 378.4C510.508 378.4 519.481 379.52 527.681 381.227C546.574 385.173 565.321 397.067 575.441 417.827C578.668 424.453 579.054 455.827 506.388 455.827" fill="#DBF0FD"/>
<path d="M470.374 1023.47C460.214 1023.47 447.534 1016.6 445.401 998.627C443.761 984.88 441.854 749.667 444.921 723.427C448.388 693.627 464.828 655.267 491.068 651.294C494.188 650.827 497.308 650.427 500.281 650.427C507.774 650.427 514.308 652.96 517.348 663.253C520.788 674.893 497.094 697.027 492.441 725.494C491.481 731.427 493.694 987.787 492.014 997.893C490.334 1008 485.801 1018.01 478.614 1021.68C476.348 1022.84 473.481 1023.47 470.374 1023.47" fill="#DBF0FD"/>
<path d="M529.748 355.56C528.414 355.546 527.081 355.266 525.841 354.613C521.201 352.213 519.734 346.133 520.388 340.946C521.028 335.76 523.214 330.853 523.801 325.653C524.468 319.706 524.988 308.693 532.521 308.693C533.494 308.693 534.588 308.88 535.814 309.28C544.174 312.026 543.001 324.373 543.188 331.08C543.361 337.013 543.468 343.253 540.681 348.493C538.534 352.493 534.081 355.56 529.748 355.56" fill="#DBF0FD"/>
<path d="M609.894 607.213H524.214C524.214 607.213 581.734 600.986 614.174 585.373C646.614 569.773 663.001 554.44 672.508 540.226C682.014 526.013 694.308 526.506 694.308 526.506L681.521 562.32L628.921 611.066L609.894 607.213" fill="#86C49C"/>
<path d="M666.748 596.84C682.414 590.493 719.161 573.626 720.254 494.266C721.348 414.933 684.401 391.813 631.375 357.48H631.788C619.668 347.08 607.881 339.4 603.681 327.72C595.068 303.68 594.588 235.28 594.588 235.28H519.361C519.361 235.28 518.881 303.68 510.268 327.72C506.081 339.4 494.281 347.08 482.161 357.48H482.814C429.788 391.893 392.841 415.04 394.028 494.4C395.228 573.76 431.988 590.586 447.668 596.92C471.855 606.68 465.655 615.653 466.268 631.08C466.895 646.52 405.948 661.946 402.375 702.733C399.028 740.866 399.855 968.186 399.975 997.613H399.894V1061.27C399.894 1061.27 399.894 1105.27 443.614 1104.08C482.001 1103.04 474.201 1071.37 494.668 1072.2C515.148 1073.03 508.575 1084.99 521.975 1095.35C537.641 1107.48 577.201 1107.48 592.868 1095.35C606.268 1084.99 599.694 1073.03 620.161 1072.2C640.641 1071.37 632.828 1103.04 671.228 1104.08C714.948 1105.27 714.948 1061.27 714.948 1061.27V997.613H714.935C715.015 968.72 715.561 740.786 712.174 702.613C708.548 661.826 650.721 646.466 651.335 631.04C651.935 615.6 642.574 606.626 666.748 596.84" fill="#9DE7B7"/>
<path d="M666.748 596.84C682.414 590.493 719.161 573.627 720.254 494.267C721.348 414.933 684.401 391.813 631.374 357.48H631.788C619.681 347.08 607.881 339.4 603.681 327.72C595.068 303.68 594.588 235.28 594.588 235.28H552.708C552.708 235.28 553.174 303.68 561.801 327.72C565.988 339.4 577.788 347.08 589.908 357.48H589.481C642.508 391.813 679.468 414.933 678.374 494.267C677.281 573.627 640.521 590.493 624.854 596.84C600.681 606.627 610.041 615.6 609.441 631.04C608.841 646.467 666.654 661.827 670.281 702.6C673.681 740.787 673.121 968.72 673.041 997.613H673.068V1061.27C673.068 1061.27 673.054 1088.55 651.708 1099.56C656.494 1102.12 662.721 1103.85 671.228 1104.08C714.948 1105.27 714.948 1061.27 714.948 1061.27V997.613H714.934C715.014 968.72 715.561 740.787 712.174 702.6C708.548 661.827 650.721 646.467 651.321 631.04C651.934 615.6 642.574 606.627 666.748 596.84" fill="#86C49C"/>
<path d="M671.228 1081.93C632.828 1080.89 640.641 1049.56 620.161 1050.39C599.694 1051.2 606.268 1063.03 592.868 1073.29C577.201 1085.29 537.641 1085.29 521.974 1073.29C508.574 1063.03 515.148 1051.2 494.668 1050.39C474.201 1049.56 482.001 1080.89 443.614 1081.93C399.881 1083.11 399.881 1039.56 399.881 1039.56V1061.39C399.881 1061.39 399.881 1104.92 443.614 1103.75C482.001 1102.71 474.201 1071.39 494.668 1072.2C515.148 1073.01 508.574 1084.84 521.974 1095.11C537.641 1107.11 577.201 1107.11 592.868 1095.11C606.268 1084.84 599.694 1073.01 620.161 1072.2C640.641 1071.39 632.828 1102.71 671.228 1103.75C714.948 1104.92 714.948 1061.39 714.948 1061.39V1039.56C714.948 1039.56 714.948 1083.11 671.228 1081.93" fill="#86C49C"/>
<path d="M595.068 286.28H516.628C510.441 286.28 505.428 281.266 505.428 275.08V235.213C505.428 229.026 510.441 224 516.628 224H595.068C601.268 224 606.281 229.026 606.281 235.213V275.08C606.281 281.266 601.268 286.28 595.068 286.28Z" fill="#304298"/>
<path d="M599.694 300.586H512.921C510.748 300.586 508.974 298.813 508.974 296.64V295.293C508.974 293.12 510.748 291.346 512.921 291.346H599.694C601.868 291.346 603.641 293.12 603.641 295.293V296.64C603.641 298.813 601.868 300.586 599.694 300.586Z" fill="#304298"/>
<path d="M521.135 286.28H514.241V232.986H521.135V286.28Z" fill="#223466"/>
<path d="M536.014 286.28H529.121V232.986H536.014V286.28Z" fill="#223466"/>
<path d="M553.094 286.28H546.201V232.986H553.094V286.28Z" fill="#223466"/>
<path d="M569.628 286.28H562.734V232.986H569.628V286.28Z" fill="#223466"/>
<path d="M584.788 286.28H577.894V232.986H584.788V286.28Z" fill="#223466"/>
<path d="M596.908 286.28H590.028V232.986H596.908V286.28Z" fill="#223466"/>
<path d="M596.961 229.92H514.161C513.054 229.92 512.148 229.013 512.148 227.92C512.148 226.813 513.054 225.907 514.161 225.907H596.961C598.068 225.907 598.974 226.813 598.974 227.92C598.974 229.013 598.068 229.92 596.961 229.92Z" fill="#405CC6"/>
<path d="M506.388 455.827C501.414 455.813 496.094 455.667 490.414 455.36C477.801 454.667 465.174 454.24 452.548 453.667C445.788 453.373 437.561 451.827 435.054 443.787C434.014 440.467 434.281 436.733 434.788 433.213C440.934 390.52 471.601 378.4 501.454 378.4C510.508 378.4 519.481 379.52 527.681 381.227C546.574 385.173 565.321 397.067 575.441 417.827C578.668 424.453 579.054 455.827 506.388 455.827" fill="#DBF0FD"/>
<path d="M470.374 1023.47C460.214 1023.47 447.534 1016.6 445.401 998.627C443.761 984.88 441.854 749.667 444.921 723.427C448.388 693.627 464.828 655.267 491.068 651.294C494.188 650.827 497.308 650.427 500.281 650.427C507.774 650.427 514.308 652.96 517.348 663.253C520.788 674.893 497.094 697.027 492.441 725.494C491.481 731.427 493.694 987.787 492.014 997.893C490.334 1008 485.801 1018.01 478.614 1021.68C476.348 1022.84 473.481 1023.47 470.374 1023.47" fill="#DBF0FD"/>
<path d="M529.748 355.56C528.414 355.546 527.081 355.266 525.841 354.613C521.201 352.213 519.734 346.133 520.388 340.946C521.028 335.76 523.214 330.853 523.801 325.653C524.468 319.706 524.988 308.693 532.521 308.693C533.494 308.693 534.588 308.88 535.814 309.28C544.174 312.026 543.001 324.373 543.188 331.08C543.361 337.013 543.468 343.253 540.681 348.493C538.534 352.493 534.081 355.56 529.748 355.56" fill="#DBF0FD"/>
<path d="M609.894 607.213H524.214C524.214 607.213 581.734 600.986 614.174 585.373C646.614 569.773 663.001 554.44 672.508 540.226C682.014 526.013 694.308 526.506 694.308 526.506L681.521 562.32L628.921 611.066L609.894 607.213" fill="#86C49C"/>
</svg>
